<svg xmlns="http://www.w3.org/2000/svg" viewBox="-26.5281 -0.0 471.6795 471.6795" width="512" height="512" fill="#1a1a1a" role="img" aria-label="Dustpan and broom">
<path fill="#ffffff" d="M214.61,470.21 C209.67,468.27 193.69,460.19 187.51,456.50 C180.42,452.25 173.76,446.82 165.52,438.56 C157.47,430.48 153.02,424.96 148.70,417.68 C145.13,411.67 140.25,402.01 138.33,397.16 C137.56,395.20 134.37,388.32 131.25,381.86 C124.79,368.48 123.80,366.00 123.17,361.58 C122.28,355.27 123.81,350.22 131.91,332.84 L136.61,322.74 L132.92,315.10 C128.60,306.17 127.56,303.23 127.93,300.99 C128.35,298.39 130.26,294.70 132.12,292.91 L133.84,291.24 L130.75,285.08 C126.58,276.74 108.41,241.76 74.68,177.11 C41.12,112.80 19.19,70.42 8.37,48.97 L0.42,33.22 L0.26,29.08 C-0.06,20.76 4.04,12.62 10.71,8.34 C15.21,5.45 23.09,4.34 29.11,5.76 C34.71,7.08 36.62,8.66 41.38,15.89 C48.89,27.29 56.01,40.69 134.44,191.04 L174.86,268.54 L178.88,268.54 C181.37,268.54 183.72,268.83 185.08,269.29 C188.03,270.29 191.09,273.45 193.65,278.14 C194.79,280.23 196.56,283.32 197.59,285.03 L199.46,288.12 L201.51,288.00 C202.63,287.94 207.49,287.24 212.31,286.46 C224.17,284.53 226.67,284.67 232.55,287.59 C237.61,290.10 238.89,291.42 242.99,298.34 C244.61,301.08 246.10,303.09 246.51,303.09 C246.90,303.09 254.59,295.78 263.62,286.84 C272.84,277.70 281.19,269.81 282.69,268.83 C290.45,263.75 298.71,261.35 312.72,260.10 L318.71,259.56 L318.99,248.05 C319.14,241.71 319.48,235.86 319.76,235.04 C320.74,232.10 322.38,229.82 325.01,227.75 L327.69,225.64 L327.69,192.13 C327.69,173.69 327.55,140.57 327.39,118.53 L327.08,78.45 L324.78,78.03 C319.92,77.15 319.72,75.81 319.99,44.92 C320.21,19.38 320.26,18.79 322.91,13.49 C324.68,9.95 330.31,4.32 333.76,2.65 C341.03,-0.86 349.06,-0.78 355.97,2.89 C359.52,4.77 364.91,9.85 366.55,12.86 C369.13,17.61 369.27,19.18 369.48,46.12 C369.73,77.33 369.71,77.48 364.73,78.10 L362.24,78.41 L362.24,115.09 C362.24,135.27 362.10,168.36 361.93,188.64 L361.63,225.50 L364.69,227.91 C369.81,231.93 370.46,234.17 370.86,249.25 L371.13,259.66 L380.85,259.98 C394.99,260.46 397.12,260.78 402.08,263.23 C408.32,266.30 412.85,270.49 415.55,275.68 C417.92,280.25 418.00,281.14 418.42,310.69 C418.84,340.16 418.48,357.42 417.33,362.79 C416.03,368.91 413.69,373.81 409.75,378.70 C405.14,384.42 397.77,390.53 367.67,413.57 L348.93,427.92 L317.01,427.94 C299.45,427.95 281.15,428.14 276.33,428.37 C268.57,428.74 266.86,428.97 261.18,430.44 C257.66,431.36 254.45,432.28 254.03,432.50 C253.62,432.73 253.02,433.91 252.70,435.13 C250.80,442.43 248.68,448.33 247.74,448.94 C247.19,449.30 243.29,450.46 239.07,451.51 L231.39,453.42 L227.65,460.59 C222.49,470.46 221.62,471.68 219.77,471.66 C218.96,471.65 216.64,471.00 214.61,470.21 Z"/>
<g transform="translate(-66.259768,530.874858) scale(0.1,-0.1)"
fill="#1a1a1a" stroke="none">
<path d="M4023 5293 c-62 -22 -125 -87 -146 -152 -14 -45 -17 -94 -17 -315 0
-281 2 -292 50 -298 l25 -3 3 -736 2 -736 -34 -27 c-45 -34 -56 -74 -56 -207
l0 -106 -92 -8 c-109 -8 -212 -42 -280 -92 -27 -19 -116 -105 -199 -191 -120
-125 -152 -154 -160 -142 -5 8 -24 40 -42 70 -25 44 -43 61 -86 83 -63 31 -89
32 -226 8 -55 -10 -103 -16 -107 -14 -4 2 -26 39 -48 81 -47 90 -80 116 -152
117 l-48 0 -660 1265 c-716 1372 -694 1334 -791 1360 -63 17 -143 7 -191 -25
-79 -52 -122 -159 -99 -248 6 -24 308 -612 671 -1306 363 -695 660 -1267 660
-1271 0 -5 -6 -13 -14 -17 -19 -12 -46 -68 -46 -98 0 -14 20 -65 45 -114 l44
-89 -54 -115 c-110 -233 -110 -257 -7 -463 38 -76 73 -150 77 -164 13 -43 83
-178 132 -253 68 -103 220 -253 328 -323 97 -62 296 -161 344 -170 28 -6 31
-3 78 87 l48 94 82 20 c45 11 85 23 88 27 4 4 17 42 30 85 l22 77 79 22 c75
21 98 23 477 23 l398 1 268 205 c288 220 349 276 386 358 43 91 46 133 43 528
-3 355 -4 376 -24 419 -27 58 -73 104 -138 137 -45 23 -66 26 -183 31 l-133 5
0 114 c0 129 -11 168 -59 202 l-31 22 3 737 2 737 25 3 c50 7 50 7 50 291 0
315 -5 345 -75 414 -71 72 -168 94 -262 60z m185 -92 c18 -12 41 -40 52 -61
18 -36 20 -60 20 -290 l0 -250 -170 0 -170 0 0 250 c0 230 2 254 20 290 18 35
54 68 90 83 33 14 126 1 158 -22z m-3235 -40 c33 -19 68 -76 202 -336 54 -104
113 -217 131 -251 l34 -61 -137 -71 c-76 -40 -140 -68 -144 -64 -4 4 -77 141
-163 306 -137 262 -156 304 -156 346 0 119 128 191 233 131z m429 -770 l27
-50 -135 -71 c-74 -39 -138 -69 -142 -66 -15 10 -56 99 -47 103 6 2 64 32 130
68 66 35 125 64 130 64 6 1 22 -21 37 -48z m2876 -1433 c8 -8 12 -57 12 -154
0 -116 3 -145 16 -158 13 -13 42 -16 160 -16 189 0 237 -19 286 -114 25 -48
22 -148 -5 -190 l-17 -26 -518 0 -518 0 -53 -26 c-38 -20 -72 -49 -120 -106
l-66 -80 -60 6 c-43 4 -84 18 -142 47 -46 23 -83 45 -83 50 0 5 79 90 177 189
224 229 246 242 433 248 69 2 131 9 138 14 8 8 12 52 12 157 0 101 4 151 12
159 8 8 60 12 168 12 108 0 160 -4 168 -12z m-1776 -420 c30 -25 110 -188 104
-212 -3 -13 -37 -53 -75 -89 -87 -81 -185 -131 -303 -154 -107 -21 -105 -22
-167 105 -60 123 -57 133 57 167 112 35 203 83 272 145 56 50 84 60 112 38z
m2248 -880 c-11 -30 -33 -72 -50 -94 -27 -37 -527 -430 -536 -421 -7 6 17 180
33 246 27 107 71 200 146 305 79 111 233 307 346 440 l76 89 3 -256 c2 -235 1
-260 -18 -309z m-1568 432 c18 -10 64 -31 101 -45 64 -24 79 -25 228 -24 l159
2 41 -29 c37 -25 136 -141 128 -148 -35 -29 -119 -76 -134 -76 -81 1 -262 57
-392 122 -85 42 -105 49 -118 38 -26 -22 -17 -48 25 -75 101 -64 311 -139 423
-151 51 -6 58 -10 63 -33 10 -42 14 -60 19 -80 5 -15 -7 -27 -56 -57 -60 -36
-64 -37 -106 -26 -80 22 -246 109 -352 186 -84 60 -108 73 -123 65 -10 -5 -18
-20 -18 -32 0 -48 267 -217 429 -273 29 -11 55 -24 58 -31 3 -6 0 -37 -7 -67
l-11 -55 -70 -23 -70 -22 -47 24 c-123 65 -252 160 -365 269 -48 46 -60 54
-75 45 -37 -23 -25 -48 61 -131 93 -89 195 -164 305 -225 68 -38 73 -43 67
-67 -16 -62 -28 -74 -102 -97 l-73 -22 -74 52 c-112 77 -209 161 -302 261 -72
77 -86 88 -101 79 -10 -6 -19 -22 -21 -35 -6 -47 287 -320 432 -404 17 -10 17
-13 1 -68 -12 -43 -22 -58 -38 -62 -105 -24 -110 -24 -147 -5 -115 59 -313
236 -390 350 -36 52 -45 61 -68 58 -19 -2 -28 -10 -30 -26 -8 -56 214 -292
374 -396 l91 -60 -26 -58 c-14 -32 -31 -58 -37 -58 -6 0 -62 25 -125 56 -258
127 -418 279 -538 514 -75 146 -81 129 61 190 408 176 685 372 871 618 21 28
41 52 43 52 1 0 18 -9 36 -20z m906 -922 l-3 -63 -330 -3 c-181 -1 -335 0
-342 2 -9 4 -8 15 4 45 14 36 21 42 77 59 54 18 93 20 329 21 l268 1 -3 -62z"/>
<path d="M4082 5078 c-19 -19 -16 -193 4 -212 43 -43 64 -6 64 111 0 90 -8
113 -40 113 -9 0 -21 -5 -28 -12z"/>
<path d="M865 5031 c-4 -15 11 -54 51 -131 58 -109 71 -124 99 -114 32 13 26
44 -32 151 -49 91 -62 108 -85 111 -19 2 -28 -2 -33 -17z"/>
</g>
</svg>
