<svg xmlns="http://www.w3.org/2000/svg" viewBox="-26.5281 -0.0 471.6795 471.6795" width="512" height="512" fill="currentColor" role="img" aria-label="Dustpan and broom">
<g transform="translate(-66.259768,530.874858) scale(0.1,-0.1)"
fill="currentColor" stroke="none">
<path d="M4023 5293 c-62 -22 -125 -87 -146 -152 -14 -45 -17 -94 -17 -315 0
-281 2 -292 50 -298 l25 -3 3 -736 2 -736 -34 -27 c-45 -34 -56 -74 -56 -207
l0 -106 -92 -8 c-109 -8 -212 -42 -280 -92 -27 -19 -116 -105 -199 -191 -120
-125 -152 -154 -160 -142 -5 8 -24 40 -42 70 -25 44 -43 61 -86 83 -63 31 -89
32 -226 8 -55 -10 -103 -16 -107 -14 -4 2 -26 39 -48 81 -47 90 -80 116 -152
117 l-48 0 -660 1265 c-716 1372 -694 1334 -791 1360 -63 17 -143 7 -191 -25
-79 -52 -122 -159 -99 -248 6 -24 308 -612 671 -1306 363 -695 660 -1267 660
-1271 0 -5 -6 -13 -14 -17 -19 -12 -46 -68 -46 -98 0 -14 20 -65 45 -114 l44
-89 -54 -115 c-110 -233 -110 -257 -7 -463 38 -76 73 -150 77 -164 13 -43 83
-178 132 -253 68 -103 220 -253 328 -323 97 -62 296 -161 344 -170 28 -6 31
-3 78 87 l48 94 82 20 c45 11 85 23 88 27 4 4 17 42 30 85 l22 77 79 22 c75
21 98 23 477 23 l398 1 268 205 c288 220 349 276 386 358 43 91 46 133 43 528
-3 355 -4 376 -24 419 -27 58 -73 104 -138 137 -45 23 -66 26 -183 31 l-133 5
0 114 c0 129 -11 168 -59 202 l-31 22 3 737 2 737 25 3 c50 7 50 7 50 291 0
315 -5 345 -75 414 -71 72 -168 94 -262 60z m185 -92 c18 -12 41 -40 52 -61
18 -36 20 -60 20 -290 l0 -250 -170 0 -170 0 0 250 c0 230 2 254 20 290 18 35
54 68 90 83 33 14 126 1 158 -22z m-3235 -40 c33 -19 68 -76 202 -336 54 -104
113 -217 131 -251 l34 -61 -137 -71 c-76 -40 -140 -68 -144 -64 -4 4 -77 141
-163 306 -137 262 -156 304 -156 346 0 119 128 191 233 131z m429 -770 l27
-50 -135 -71 c-74 -39 -138 -69 -142 -66 -15 10 -56 99 -47 103 6 2 64 32 130
68 66 35 125 64 130 64 6 1 22 -21 37 -48z m2876 -1433 c8 -8 12 -57 12 -154
0 -116 3 -145 16 -158 13 -13 42 -16 160 -16 189 0 237 -19 286 -114 25 -48
22 -148 -5 -190 l-17 -26 -518 0 -518 0 -53 -26 c-38 -20 -72 -49 -120 -106
l-66 -80 -60 6 c-43 4 -84 18 -142 47 -46 23 -83 45 -83 50 0 5 79 90 177 189
224 229 246 242 433 248 69 2 131 9 138 14 8 8 12 52 12 157 0 101 4 151 12
159 8 8 60 12 168 12 108 0 160 -4 168 -12z m-1776 -420 c30 -25 110 -188 104
-212 -3 -13 -37 -53 -75 -89 -87 -81 -185 -131 -303 -154 -107 -21 -105 -22
-167 105 -60 123 -57 133 57 167 112 35 203 83 272 145 56 50 84 60 112 38z
m2248 -880 c-11 -30 -33 -72 -50 -94 -27 -37 -527 -430 -536 -421 -7 6 17 180
33 246 27 107 71 200 146 305 79 111 233 307 346 440 l76 89 3 -256 c2 -235 1
-260 -18 -309z m-1568 432 c18 -10 64 -31 101 -45 64 -24 79 -25 228 -24 l159
2 41 -29 c37 -25 136 -141 128 -148 -35 -29 -119 -76 -134 -76 -81 1 -262 57
-392 122 -85 42 -105 49 -118 38 -26 -22 -17 -48 25 -75 101 -64 311 -139 423
-151 51 -6 58 -10 63 -33 10 -42 14 -60 19 -80 5 -15 -7 -27 -56 -57 -60 -36
-64 -37 -106 -26 -80 22 -246 109 -352 186 -84 60 -108 73 -123 65 -10 -5 -18
-20 -18 -32 0 -48 267 -217 429 -273 29 -11 55 -24 58 -31 3 -6 0 -37 -7 -67
l-11 -55 -70 -23 -70 -22 -47 24 c-123 65 -252 160 -365 269 -48 46 -60 54
-75 45 -37 -23 -25 -48 61 -131 93 -89 195 -164 305 -225 68 -38 73 -43 67
-67 -16 -62 -28 -74 -102 -97 l-73 -22 -74 52 c-112 77 -209 161 -302 261 -72
77 -86 88 -101 79 -10 -6 -19 -22 -21 -35 -6 -47 287 -320 432 -404 17 -10 17
-13 1 -68 -12 -43 -22 -58 -38 -62 -105 -24 -110 -24 -147 -5 -115 59 -313
236 -390 350 -36 52 -45 61 -68 58 -19 -2 -28 -10 -30 -26 -8 -56 214 -292
374 -396 l91 -60 -26 -58 c-14 -32 -31 -58 -37 -58 -6 0 -62 25 -125 56 -258
127 -418 279 -538 514 -75 146 -81 129 61 190 408 176 685 372 871 618 21 28
41 52 43 52 1 0 18 -9 36 -20z m906 -922 l-3 -63 -330 -3 c-181 -1 -335 0
-342 2 -9 4 -8 15 4 45 14 36 21 42 77 59 54 18 93 20 329 21 l268 1 -3 -62z"/>
<path d="M4082 5078 c-19 -19 -16 -193 4 -212 43 -43 64 -6 64 111 0 90 -8
113 -40 113 -9 0 -21 -5 -28 -12z"/>
<path d="M865 5031 c-4 -15 11 -54 51 -131 58 -109 71 -124 99 -114 32 13 26
44 -32 151 -49 91 -62 108 -85 111 -19 2 -28 -2 -33 -17z"/>
</g>
<g fill="#f9f9fb"><path transform="translate(337,351) rotate(22.5) scale(0.9)" d="M-6 -20 h12 v20 h11 l-17 20 -17 -20 h11 z"/><path transform="translate(369,326) rotate(-33.75) scale(0.9)" d="M-6 -20 h12 v20 h11 l-17 20 -17 -20 h11 z"/></g>
</svg>
